<svg width="20" height="20" viewBox="0 0 20 20" fill="none" xmlns="http://www.w3.org/2000/svg">
<path d="M16.95 16.8547C14.9016 17.4145 12.9109 16.828 12.507 15.5749C12.1031 14.2952 13.4302 12.8289 15.4786 12.269C15.9402 12.1357 16.2865 11.7625 16.2865 11.3092V4.32411C16.2865 3.84421 15.8537 3.47098 15.3344 3.52427L11.4395 3.76424L8.38136 3.95088C7.91975 3.97752 7.57353 4.32411 7.57353 4.75071V16.8547C7.66008 18.0277 6.39065 19.2808 4.51537 19.7873C2.46696 20.3472 0.476259 19.7607 0.0723705 18.5076C-0.331518 17.2279 0.99557 15.7616 3.04398 15.2017H3.07282C3.53442 15.0684 3.88064 14.6952 3.88064 14.2419V2.03131C3.88064 1.60475 4.22686 1.25816 4.68846 1.23148L11.4395 0.644923L19.0273 0.00508129C19.5466 -0.0482495 19.9793 0.325023 19.9793 0.804915V13.7887C20.1813 14.9884 18.883 16.3481 16.95 16.8547Z" fill="black"/>
</svg>
