<svg width="25" height="25" viewBox="0 0 25 25" fill="none" xmlns="http://www.w3.org/2000/svg">
<path d="M12.5075 20.2931C12.5075 20.7335 12.2531 21.1336 11.8548 21.3203C11.7009 21.3931 11.5359 21.4283 11.372 21.4283C11.1124 21.4283 10.8552 21.3391 10.6475 21.1669L4.44093 16.0238H1.13529C0.508394 16.0244 0 15.5157 0 14.8888V10.3657C0 9.73849 0.508394 9.23009 1.13529 9.23009H4.4412L10.6478 4.08703C10.9869 3.80597 11.4571 3.74604 11.8551 3.93414C12.2531 4.12089 12.5078 4.52127 12.5078 4.96141L12.5075 20.2931ZM16.8705 18.519C16.8428 18.5209 16.8162 18.522 16.7888 18.522C16.489 18.522 16.1998 18.4035 15.9862 18.1896L15.8344 18.0373C15.4362 17.6398 15.3894 17.0103 15.7248 16.5583C16.5749 15.412 17.0237 14.0531 17.0237 12.6276C17.0237 11.0944 16.5142 9.65626 15.5501 8.46858C15.183 8.01715 15.2169 7.3615 15.6283 6.95038L15.7798 6.79856C16.0066 6.57177 16.3105 6.44817 16.6394 6.46778C16.9597 6.4839 17.2588 6.63465 17.462 6.88293C18.7993 8.51936 19.5057 10.5062 19.5057 12.6279C19.5057 14.604 18.881 16.4849 17.6987 18.0665C17.5012 18.3301 17.1992 18.4957 16.8705 18.519ZM21.5643 22.0276C21.359 22.2702 21.0621 22.4158 20.7442 22.4293C20.7286 22.4298 20.7128 22.4303 20.6966 22.4303C20.396 22.4303 20.1074 22.3116 19.8938 22.098L19.7446 21.9488C19.3279 21.5323 19.2996 20.8662 19.6785 20.4153C21.5095 18.2377 22.5182 15.4722 22.5182 12.6276C22.5182 9.66889 21.4383 6.82059 19.4781 4.60752C19.0806 4.15824 19.1008 3.47814 19.5237 3.05358L19.6726 2.90445C19.8935 2.6825 20.1805 2.56024 20.5096 2.57072C20.8221 2.57958 21.1177 2.7177 21.3254 2.95148C23.6949 5.6192 25 9.05597 25 12.6276C25.0005 16.0641 23.7803 19.4026 21.5643 22.0276Z" fill="black"/>
</svg>
